<?xml version="1.0" encoding="UTF-8"?>
<svg id="Layer_1" xmlns="http://www.w3.org/2000/svg" version="1.1" viewBox="0 0 512 512">
  <!-- Generator: Adobe Illustrator 29.8.3, SVG Export Plug-In . SVG Version: 2.1.1 Build 3)  -->
  <path d="M239.8,92.3c134.85-9.82,242.94,116.86,162.67,240.17,2.74,22.92,6.27,49.95,18.74,69.83,2.68,4.28,10.01,10.19,8.63,14.97-1.76,6.08-11.49,3.12-16.01,2.41-29.61-4.6-59.6-15.71-86.41-28.68-87.27,34.71-200.82-1.62-235.15-92.76-38.5-102.22,46.22-198.57,147.54-205.95ZM175.5,224.56c-29.62,0-30.59,43.6-3.01,46.44,32.97,3.39,35.32-46.43,3.01-46.44ZM256.5,224.56c-29.67,0-30.71,43.59-3.01,46.43,33.05,3.4,35.21-46.43,3.01-46.43ZM335.79,224.21c-30.93,3.06-28.02,50.76,5.6,46.67,29.09-3.54,23.24-49.52-5.6-46.67Z"/>
</svg>