<?xml version="1.0" encoding="UTF-8"?>
<svg id="Layer_1" xmlns="http://www.w3.org/2000/svg" version="1.1" viewBox="0 0 512 512">
  <!-- Generator: Adobe Illustrator 29.8.3, SVG Export Plug-In . SVG Version: 2.1.1 Build 3)  -->
  <path d="M273,321l-54.54-.04c-75.48,2.76-135.11,34.42-175.87,98.13-4.03,6.3-8.21,21.36-17.56,17.39-4.95-2.1-7.71-18.9-8.71-24.29C-3.31,306.24,62.8,201.12,167.79,176.29c34.84-8.24,69.71-4.56,105.21-5.29v-89.5c0-3.63,5.67-7.69,9.42-6.49l214.07,164.99c7.82,8.38-3.19,14.19-9.04,18.95-66.07,53.81-135.97,103.17-202.29,156.7-3.93,3.73-12.17-.31-12.17-5.16v-89.5Z"/>
</svg>