<svg width="36" height="23" viewBox="0 0 36 23" fill="none" xmlns="http://www.w3.org/2000/svg">
<g clip-path="url(#clip0_2003_2811)">
<path opacity="0.4" d="M8.52245 17.9548H25.2027C27.1495 17.9548 28.5399 17.7363 29.5323 16.7438C30.5281 15.7513 30.7326 14.3858 30.7326 12.4323V9.53911C30.7326 7.58565 30.5281 6.21344 29.5323 5.2243C28.5365 4.23183 27.1495 4.01666 25.2027 4.01666H8.46101C6.58972 4.01666 5.19603 4.23516 4.20356 5.23096C3.20775 6.22343 3 7.59972 3 9.47026V12.4323C3 14.3858 3.20442 15.7546 4.1969 16.7438C5.19603 17.7363 6.57973 17.9548 8.52245 17.9548ZM8.23907 16.6249C6.97279 16.6249 5.83261 16.4245 5.17068 15.77C4.51949 15.1081 4.32989 13.9853 4.32989 12.7157V9.31385C4.32989 7.99278 4.51949 6.85668 5.16735 6.19475C5.82928 5.52949 6.98686 5.34322 8.3046 5.34322H25.4935C26.7598 5.34322 27.9 5.54689 28.5512 6.19808C29.2131 6.86001 29.4027 7.97537 29.4027 9.24499V12.7157C29.4027 13.9853 29.2098 15.1081 28.5512 15.77C27.9 16.4279 26.7598 16.6249 25.4935 16.6249H8.23907ZM31.9771 13.6011C32.7724 13.5507 33.8478 12.5257 33.8478 10.982C33.8478 9.44243 32.7724 8.41741 31.9771 8.36703V13.6011Z" fill="white"/>
<path d="M7.86287 15.522H25.8804C26.844 15.522 27.4169 15.3713 27.7809 15.0072C28.145 14.6398 28.3031 14.0636 28.3031 13.0993V8.86879C28.3031 7.8978 28.145 7.32825 27.7843 6.96087C27.4169 6.60015 26.8373 6.44611 25.8804 6.44611H7.93173C6.90263 6.44611 6.30902 6.59682 5.95904 6.95754C5.59831 7.32492 5.44019 7.91854 5.44019 8.93023V13.0993C5.44019 14.0736 5.59831 14.6398 5.95904 15.0072C6.32642 15.3679 6.90596 15.522 7.86287 15.522Z" fill="white"/>
</g>
<defs>
<clipPath id="clip0_2003_2811">
<rect width="30.8478" height="13.9548" fill="white" transform="translate(3 4)"/>
</clipPath>
</defs>
</svg>
